<svg xmlns="http://www.w3.org/2000/svg" width="17" height="20" viewBox="0 0 17 20" fill="none">
<path d="M5.14548 6.6859L5.14336 6.68755L5.14135 6.68943L5.14548 6.6859ZM14.5128 6.51724C14.4473 6.45662 14.3747 6.40357 14.2964 6.35919C14.1855 6.2965 14.0624 6.25632 13.9348 6.24115C13.8071 6.22597 13.6775 6.23612 13.5541 6.27096C13.4307 6.3058 13.316 6.36459 13.2171 6.44371C13.1183 6.52282 13.0374 6.62057 12.9795 6.73092C12.6553 7.34456 12.2082 7.89066 11.6639 8.3379C11.7471 7.88728 11.7891 7.43051 11.7893 6.97284C11.7911 5.58055 11.4088 4.21267 10.6814 3.00849C9.95396 1.8043 8.90743 0.806819 7.64831 0.117599C7.50961 0.0420552 7.3532 0.00160591 7.19377 4.68429e-05C7.03434 -0.00151223 6.87711 0.03587 6.73683 0.108686C6.59656 0.181502 6.47784 0.287364 6.39181 0.416339C6.30578 0.545314 6.25527 0.693174 6.24501 0.846044C6.19235 1.70333 5.95908 2.54143 5.55935 3.30954C5.15961 4.07766 4.60173 4.75981 3.91951 5.31467L3.70262 5.48419C2.98923 5.94539 2.35776 6.51393 1.83247 7.16799C1.01594 8.15632 0.450299 9.31384 0.180416 10.5488C-0.0894666 11.7837 -0.0561707 13.062 0.277663 14.2824C0.611497 15.5028 1.23669 16.6317 2.10365 17.5796C2.97062 18.5274 4.05552 19.2682 5.27231 19.7431C5.41518 19.7991 5.57022 19.8206 5.72375 19.8055C5.87729 19.7904 6.0246 19.7393 6.15269 19.6566C6.28078 19.5738 6.38572 19.4621 6.45825 19.3312C6.53078 19.2003 6.56866 19.0543 6.56857 18.906C6.56789 18.8101 6.55209 18.7148 6.5217 18.6235C6.31116 17.8631 6.25054 17.0716 6.34295 16.2898C7.23341 17.9035 8.66277 19.1825 10.4012 19.9214C10.6134 20.0126 10.8533 20.0249 11.0744 19.9558C12.4479 19.5299 13.6853 18.7736 14.6689 17.7588C15.6525 16.744 16.3497 15.5044 16.6942 14.1578C17.0388 12.8112 17.0192 11.4023 16.6374 10.0651C16.2556 8.72776 15.5242 7.50647 14.5128 6.51724ZM10.8382 18.1184C10.0179 17.719 9.29428 17.1582 8.7144 16.4724C8.13451 15.7866 7.71133 14.9913 7.47238 14.1381C7.39941 13.8508 7.34296 13.5598 7.30329 13.2666C7.27641 13.0798 7.18945 12.9058 7.05459 12.7689C6.91972 12.6319 6.74369 12.5389 6.55109 12.5028C6.49176 12.4916 6.43142 12.486 6.37095 12.486C6.20555 12.486 6.04306 12.5278 5.89987 12.6074C5.75667 12.6869 5.63783 12.8013 5.55534 12.939C4.77452 14.233 4.38185 15.7094 4.42084 17.2046C3.73409 16.6916 3.16016 16.0527 2.73228 15.325C2.30441 14.5973 2.03112 13.7953 1.92824 12.9654C1.82537 12.1355 1.89495 11.2942 2.13297 10.4903C2.37099 9.68643 2.7727 8.93593 3.31483 8.2823C3.72646 7.7686 4.22303 7.32327 4.78475 6.96406C4.80907 6.94897 4.8324 6.93246 4.85459 6.91461C4.85459 6.91461 5.13382 6.69263 5.14336 6.68755C6.48408 5.59802 7.43763 4.13383 7.8712 2.49894C8.89654 3.40963 9.58024 4.6201 9.81612 5.9424C10.052 7.26469 9.82689 8.62482 9.17571 9.81159C9.08968 9.96995 9.05439 10.1492 9.07429 10.3269C9.09419 10.5045 9.16839 10.6724 9.28753 10.8096C9.40667 10.9467 9.56542 11.0469 9.74374 11.0974C9.92207 11.148 10.112 11.1467 10.2895 11.0937C11.731 10.6595 12.9995 9.81151 13.9242 8.66377C14.4799 9.45245 14.8432 10.3515 14.9871 11.2938C15.1309 12.2362 15.0516 13.1975 14.755 14.1063C14.4583 15.0151 13.9521 15.8479 13.2739 16.5425C12.5957 17.2372 11.7632 17.7759 10.8382 18.1184Z" fill="#383838"/>
</svg>