<svg xmlns="http://www.w3.org/2000/svg" width="19" height="20" viewBox="0 0 19 20" fill="none">
  <path d="M17.0804 6.01673L11.052 0.763019C10.4994 0.271652 9.784 0 9.04258 0C8.30117 0 7.58576 0.271652 7.03314 0.763019L1.00482 6.01673C0.685685 6.30047 0.43102 6.64853 0.257778 7.03776C0.0845357 7.42698 -0.0033081 7.84842 9.52416e-05 8.27403V17.0036C9.52416e-05 17.7983 0.317658 18.5604 0.882923 19.1224C1.44819 19.6843 2.21485 20 3.01426 20H15.0709C15.8703 20 16.637 19.6843 17.2022 19.1224C17.7675 18.5604 18.0851 17.7983 18.0851 17.0036V8.26404C18.087 7.84011 17.9985 7.42059 17.8253 7.0332C17.6521 6.6458 17.3982 6.29935 17.0804 6.01673ZM11.052 18.0024H7.03314V13.0084C7.03314 12.7435 7.139 12.4894 7.32742 12.3021C7.51584 12.1148 7.77139 12.0096 8.03786 12.0096H10.0473C10.3138 12.0096 10.5693 12.1148 10.7577 12.3021C10.9462 12.4894 11.052 12.7435 11.052 13.0084V18.0024ZM16.0756 17.0036C16.0756 17.2685 15.9698 17.5225 15.7814 17.7098C15.5929 17.8972 15.3374 18.0024 15.0709 18.0024H13.0615V13.0084C13.0615 12.2137 12.7439 11.4515 12.1786 10.8896C11.6134 10.3276 10.8467 10.012 10.0473 10.012H8.03786C7.23846 10.012 6.47179 10.3276 5.90653 10.8896C5.34126 11.4515 5.0237 12.2137 5.0237 13.0084V18.0024H3.01426C2.74779 18.0024 2.49223 17.8972 2.30381 17.7098C2.11539 17.5225 2.00954 17.2685 2.00954 17.0036V8.26404C2.00972 8.12223 2.04027 7.98208 2.09918 7.85291C2.15808 7.72375 2.24397 7.60854 2.35114 7.51494L8.37947 2.27121C8.56282 2.11109 8.79853 2.02278 9.04258 2.02278C9.28664 2.02278 9.52235 2.11109 9.7057 2.27121L15.734 7.51494C15.8412 7.60854 15.9271 7.72375 15.986 7.85291C16.0449 7.98208 16.0755 8.12223 16.0756 8.26404V17.0036Z" fill="#383838"/>
</svg>