<svg xmlns="http://www.w3.org/2000/svg" width="20" height="20" viewBox="0 0 20 20" fill="none">
  <path d="M5 14C4.80222 14 4.60888 14.0586 4.44443 14.1685C4.27998 14.2784 4.15181 14.4346 4.07612 14.6173C4.00043 14.8 3.98063 15.0011 4.01921 15.1951C4.0578 15.3891 4.15304 15.5673 4.29289 15.7071C4.43275 15.847 4.61093 15.9422 4.80491 15.9808C4.99889 16.0194 5.19996 15.9996 5.38268 15.9239C5.56541 15.8482 5.72159 15.72 5.83147 15.5556C5.94135 15.3911 6 15.1978 6 15C6 14.7348 5.89464 14.4804 5.70711 14.2929C5.51957 14.1054 5.26522 14 5 14ZM17.06 10L18.29 8.77C18.8518 8.2075 19.1674 7.445 19.1674 6.65C19.1674 5.855 18.8518 5.0925 18.29 4.53L15.46 1.71C14.8975 1.1482 14.135 0.83264 13.34 0.83264C12.545 0.83264 11.7825 1.1482 11.22 1.71L10 2.94C9.98429 2.15479 9.6613 1.40706 9.10039 0.857361C8.53947 0.307664 7.78536 -0.000157028 7 6.00945e-08H3C2.20435 6.00945e-08 1.44129 0.316071 0.87868 0.87868C0.316071 1.44129 0 2.20435 0 3V17C0 17.7956 0.316071 18.5587 0.87868 19.1213C1.44129 19.6839 2.20435 20 3 20H17C17.7956 20 18.5587 19.6839 19.1213 19.1213C19.6839 18.5587 20 17.7956 20 17V13C20.0002 12.2146 19.6923 11.4605 19.1426 10.8996C18.5929 10.3387 17.8452 10.0157 17.06 10ZM8 17C8 17.2652 7.89464 17.5196 7.70711 17.7071C7.51957 17.8946 7.26522 18 7 18H3C2.73478 18 2.48043 17.8946 2.29289 17.7071C2.10536 17.5196 2 17.2652 2 17V3C2 2.73478 2.10536 2.48043 2.29289 2.29289C2.48043 2.10536 2.73478 2 3 2H7C7.26522 2 7.51957 2.10536 7.70711 2.29289C7.89464 2.48043 8 2.73478 8 3V17ZM10 5.76L12.64 3.12C12.8274 2.93375 13.0808 2.82921 13.345 2.82921C13.6092 2.82921 13.8626 2.93375 14.05 3.12L16.88 6C17.0662 6.18736 17.1708 6.44081 17.1708 6.705C17.1708 6.96919 17.0662 7.22264 16.88 7.41L14 10.29L10 14.24V5.76ZM18 17C18 17.2652 17.8946 17.5196 17.7071 17.7071C17.5196 17.8946 17.2652 18 17 18H9.82C9.92258 17.7036 9.9799 17.3935 9.99 17.08L15.07 12H17C17.2652 12 17.5196 12.1054 17.7071 12.2929C17.8946 12.4804 18 12.7348 18 13V17Z" fill="#383838"/>
</svg>