<svg xmlns="http://www.w3.org/2000/svg" width="28" height="30" viewBox="0 0 28 30" fill="none">
<path d="M27.4254 0.464572C27.2916 0.318231 27.1288 0.20135 26.9473 0.121367C26.7659 0.0413844 26.5697 5.18569e-05 26.3714 0H1.42859C1.2303 7.52165e-05 1.0342 0.0414117 0.852756 0.121381C0.671312 0.20135 0.508494 0.318202 0.374657 0.464505C0.240819 0.610809 0.138891 0.783363 0.0753547 0.971193C0.0118181 1.15902 -0.0119366 1.35802 0.0056009 1.55553L2.17703 25.8412C2.20279 26.1306 2.31622 26.4053 2.50218 26.6285C2.68814 26.8517 2.93778 27.0129 3.21776 27.0905L13.5038 29.9477C13.6282 29.9824 13.7568 30 13.8861 30C14.015 29.9999 14.1433 29.9825 14.2676 29.9484L24.5815 27.0912C24.8616 27.0135 25.1114 26.8522 25.2974 26.6289C25.4835 26.4055 25.5971 26.1308 25.6229 25.8412L27.7944 1.55553C27.8119 1.35803 27.7882 1.15904 27.7247 0.971222C27.6612 0.783399 27.5592 0.610855 27.4254 0.464572ZM22.8649 24.6017L13.8868 27.0891L4.93517 24.6024L2.99041 2.85714H24.8096L22.8649 24.6017ZM7.92833 15.7143H17.7783L17.311 20.3871L13.6426 21.6971L9.12323 20.083C8.94647 20.0196 8.75895 19.9917 8.57139 20.0009C8.38383 20.01 8.19992 20.056 8.03016 20.1363C7.8604 20.2166 7.70814 20.3296 7.58207 20.4687C7.456 20.6079 7.35859 20.7705 7.29543 20.9474C7.23227 21.1242 7.20458 21.3118 7.21395 21.4993C7.22333 21.6869 7.26958 21.8707 7.35007 22.0404C7.43055 22.21 7.54369 22.3622 7.68301 22.4881C7.82233 22.614 7.9851 22.7112 8.16201 22.7741L13.162 24.5598C13.4729 24.6705 13.8124 24.6705 14.1232 24.5598L19.1232 22.7741C19.3778 22.6831 19.6014 22.5217 19.768 22.3088C19.9345 22.0958 20.0372 21.8399 20.0642 21.5709L20.7785 14.428C20.7982 14.2294 20.7762 14.0289 20.7137 13.8393C20.6513 13.6498 20.5498 13.4754 20.4159 13.3274C20.282 13.1795 20.1186 13.0612 19.9362 12.9802C19.7538 12.8992 19.5565 12.8573 19.3569 12.8571H9.22089L8.79259 8.57143H20.0712C20.45 8.57143 20.8134 8.42092 21.0813 8.15301C21.3492 7.8851 21.4997 7.52174 21.4997 7.14286C21.4997 6.76398 21.3492 6.40061 21.0813 6.13271C20.8134 5.8648 20.45 5.71429 20.0712 5.71429H7.21402C7.01444 5.71441 6.81711 5.75632 6.63472 5.83732C6.45232 5.91832 6.28891 6.03662 6.155 6.18459C6.02109 6.33256 5.91964 6.50694 5.8572 6.69649C5.79475 6.88604 5.77269 7.08656 5.79243 7.28516L6.50671 14.428C6.54204 14.7805 6.70706 15.1073 6.96975 15.345C7.23245 15.5827 7.57407 15.7143 7.92833 15.7143Z" fill="#383838"/>
</svg>