<svg xmlns="http://www.w3.org/2000/svg" width="163" height="163" viewBox="0 0 163 163" fill="none">
  <circle cx="81.5" cy="81.5" r="80" stroke="url(#paint0_linear_135_60)" stroke-width="3"/>
  <path d="M93.9399 83.8762C97.2405 81.2937 99.6496 77.7523 100.832 73.7448C102.015 69.7372 101.912 65.4627 100.538 61.516C99.1636 57.5693 96.5869 54.1467 93.1659 51.7242C89.7448 49.3018 85.6497 48 81.4501 48C77.2505 48 73.1553 49.3018 69.7343 51.7242C66.3132 54.1467 63.7365 57.5693 62.3625 61.516C60.9885 65.4627 60.8856 69.7372 62.0681 73.7448C63.2506 77.7523 65.6597 81.2937 68.9602 83.8762C63.3047 86.1296 58.37 89.8671 54.6823 94.6902C50.9946 99.5133 48.6921 105.241 48.0203 111.263C47.9717 111.703 48.0106 112.148 48.1349 112.573C48.2591 112.997 48.4663 113.394 48.7445 113.739C49.3064 114.436 50.1237 114.882 51.0165 114.98C51.9094 115.077 52.8047 114.818 53.5055 114.26C54.2063 113.701 54.6552 112.888 54.7534 112C55.4926 105.455 58.6306 99.4106 63.5677 95.0213C68.5049 90.6319 74.8951 88.2054 81.5174 88.2054C88.1397 88.2054 94.5299 90.6319 99.4671 95.0213C104.404 99.4106 107.542 105.455 108.281 112C108.373 112.823 108.768 113.582 109.389 114.133C110.011 114.683 110.816 114.985 111.648 114.98H112.018C112.901 114.879 113.707 114.435 114.262 113.745C114.817 113.055 115.075 112.175 114.981 111.297C114.306 105.258 111.991 99.515 108.284 94.6845C104.578 89.8539 99.619 86.1177 93.9399 83.8762ZM81.4501 81.4991C78.7867 81.4991 76.1832 80.7136 73.9687 79.2421C71.7542 77.7705 70.0282 75.6789 69.0089 73.2318C67.9897 70.7847 67.7231 68.092 68.2426 65.4941C68.7622 62.8963 70.0448 60.51 71.928 58.637C73.8113 56.7641 76.2108 55.4886 78.823 54.9719C81.4351 54.4551 84.1427 54.7203 86.6033 55.734C89.064 56.7476 91.1671 58.4641 92.6468 60.6665C94.1265 62.8688 94.9162 65.4581 94.9162 68.1068C94.9162 71.6587 93.4975 75.0651 90.9721 77.5766C88.4467 80.0881 85.0215 81.4991 81.4501 81.4991Z" fill="url(#paint1_linear_135_60)"/>
  <defs>
    <linearGradient id="paint0_linear_135_60" x1="2.77354e-06" y1="16" x2="148" y2="163" gradientUnits="userSpaceOnUse">
      <stop stop-color="#5671A6"/>
      <stop offset="1" stop-color="#B2CAD8"/>
    </linearGradient>
    <linearGradient id="paint1_linear_135_60" x1="54.5" y1="45.5" x2="115" y2="128.5" gradientUnits="userSpaceOnUse">
      <stop stop-color="#5671A6"/>
      <stop offset="1" stop-color="#B2CAD8"/>
    </linearGradient>
  </defs>
</svg>