<svg xmlns="http://www.w3.org/2000/svg" width="26" height="19" viewBox="0 0 26 19" fill="none">
  <path d="M24.4505 6.69535L23.257 6.03895L12.5158 0.071608H12.3845C12.3114 0.0406718 12.2355 0.0166967 12.1578 0H11.931H11.7162C11.6347 0.0167076 11.5548 0.0406723 11.4775 0.071608H11.3462L0.605026 6.03895C0.421354 6.14304 0.26858 6.29399 0.162291 6.4764C0.0560013 6.6588 0 6.86614 0 7.07726C0 7.28838 0.0560013 7.49572 0.162291 7.67813C0.26858 7.86054 0.421354 8.01149 0.605026 8.11558L3.57676 9.76256V15.4196C3.57676 16.3692 3.95398 17.2799 4.62544 17.9513C5.29689 18.6228 6.20758 19 7.15716 19H16.7049C17.6545 19 18.5652 18.6228 19.2366 17.9513C19.9081 17.2799 20.2853 16.3692 20.2853 15.4196V9.76256L22.6722 8.42588V11.8392C22.6722 12.1557 22.798 12.4593 23.0218 12.6831C23.2456 12.9069 23.5492 13.0327 23.8657 13.0327C24.1822 13.0327 24.4858 12.9069 24.7096 12.6831C24.9334 12.4593 25.0592 12.1557 25.0592 11.8392V7.73367C25.0588 7.52219 25.0023 7.31461 24.8953 7.13217C24.7884 6.94972 24.6349 6.79898 24.4505 6.69535ZM17.8984 15.4196C17.8984 15.7361 17.7726 16.0397 17.5488 16.2635C17.325 16.4873 17.0214 16.6131 16.7049 16.6131H7.15716C6.84063 16.6131 6.53707 16.4873 6.31325 16.2635C6.08944 16.0397 5.96369 15.7361 5.96369 15.4196V11.0873L11.3462 14.071L11.5253 14.1426H11.6327C11.7317 14.1551 11.832 14.1551 11.931 14.1426C12.0301 14.1551 12.1303 14.1551 12.2294 14.1426H12.3368C12.4002 14.1292 12.4607 14.105 12.5158 14.071L17.8984 11.0873V15.4196ZM11.931 11.6721L3.64837 7.06533L11.931 2.45854L20.2137 7.06533L11.931 11.6721Z" fill="#383838"/>
</svg>