<svg xmlns="http://www.w3.org/2000/svg" width="30" height="30" viewBox="0 0 30 30" fill="none">
  <g clip-path="url(#clip0_157_110)">
    <path d="M25 15.9506C24.2483 16.2767 23.4534 16.4923 22.64 16.5906C23.4982 16.0779 24.1413 15.2714 24.45 14.3206C23.6436 14.8007 22.7608 15.1389 21.84 15.3206C21.2245 14.6532 20.405 14.2089 19.5098 14.0575C18.6147 13.906 17.6945 14.056 16.8938 14.4838C16.093 14.9116 15.4569 15.5931 15.0852 16.4214C14.7135 17.2497 14.6273 18.178 14.84 19.0606C13.2094 18.9781 11.6144 18.5536 10.1587 17.8145C8.70287 17.0754 7.41885 16.0383 6.39 14.7706C6.02914 15.4008 5.83952 16.1144 5.84 16.8406C5.83872 17.515 6.00422 18.1792 6.32176 18.7742C6.63929 19.3691 7.09902 19.8763 7.66 20.2506C7.00798 20.2329 6.36989 20.0579 5.8 19.7406V19.7906C5.80489 20.7355 6.13599 21.6497 6.73731 22.3786C7.33864 23.1074 8.17326 23.6062 9.1 23.7906C8.74326 23.8992 8.37287 23.9564 8 23.9606C7.74189 23.9576 7.48442 23.9342 7.23 23.8906C7.49391 24.7034 8.00462 25.4137 8.69107 25.9228C9.37753 26.4318 10.2056 26.7142 11.06 26.7306C9.6172 27.8659 7.83588 28.4855 6 28.4906C5.66574 28.4917 5.33174 28.4717 5 28.4306C6.87443 29.6409 9.05881 30.2833 11.29 30.2806C12.8297 30.2966 14.3571 30.0056 15.7831 29.4247C17.2091 28.8437 18.505 27.9845 19.5952 26.8971C20.6854 25.8097 21.548 24.516 22.1326 23.0915C22.7172 21.667 23.012 20.1403 23 18.6006C23 18.4306 23 18.2506 23 18.0706C23.7847 17.4854 24.4615 16.768 25 15.9506Z" fill="#5671A6"/>
  </g>
  <defs>
    <clipPath id="clip0_157_110">
      <rect width="30" height="30" fill="white"/>
    </clipPath>
  </defs>
</svg>