<svg xmlns="http://www.w3.org/2000/svg" width="30" height="30" viewBox="0 0 30 30" fill="none">
  <g clip-path="url(#clip0_157_115)">
    <path d="M15 10C13.0222 10 11.0888 10.5865 9.4443 11.6853C7.79981 12.7841 6.51809 14.3459 5.76121 16.1732C5.00433 18.0004 4.8063 20.0111 5.19215 21.9509C5.578 23.8907 6.53041 25.6725 7.92894 27.0711C9.32746 28.4696 11.1093 29.422 13.0491 29.8079C14.9889 30.1937 16.9996 29.9957 18.8268 29.2388C20.6541 28.4819 22.2159 27.2002 23.3147 25.5557C24.4135 23.9112 25 21.9778 25 20C25 18.6868 24.7413 17.3864 24.2388 16.1732C23.7363 14.9599 22.9997 13.8575 22.0711 12.9289C21.1425 12.0003 20.0401 11.2638 18.8268 10.7612C17.6136 10.2587 16.3132 10 15 10ZM15 12C17.0547 11.9992 19.0298 12.7949 20.51 14.22C18.982 15.1162 17.3629 15.847 15.68 16.4C14.8425 14.9568 13.8823 13.5884 12.81 12.31C13.522 12.105 14.2591 12.0007 15 12ZM10.89 13.15C11.9377 14.3485 12.878 15.6368 13.7 17C11.7371 17.4874 9.72251 17.7359 7.7 17.74H7.34C7.90721 15.8196 9.17394 14.1818 10.89 13.15ZM9 25.31C7.69876 23.8488 6.98608 21.9566 7 20C7 19.9 7 19.8 7 19.71H7.68C10.0474 19.6888 12.4014 19.3525 14.68 18.71C15 19.32 15.3 19.95 15.59 20.6C14.0315 21.1494 12.58 21.9648 11.3 23.01L11 23.25C10.2871 23.8902 9.61889 24.5785 9 25.31ZM15 28C13.4061 28.0035 11.8482 27.5261 10.53 26.63C11.0168 26.0716 11.5378 25.5439 12.09 25.05L12.41 24.78C13.5932 23.7849 14.949 23.0155 16.41 22.51C17.0113 24.136 17.4795 25.8082 17.81 27.51C16.9098 27.8387 15.9583 28.0046 15 28ZM19.63 26.51C19.3028 24.9966 18.8752 23.5066 18.35 22.05H18.69C18.7294 22.0403 18.7706 22.0403 18.81 22.05H18.92H19.02H19.5C20.5524 22.053 21.5968 22.2322 22.59 22.58C22.0443 24.1704 21.0079 25.5464 19.63 26.51ZM19.5 20C19.29 20 19.08 20 18.88 20C18.7505 19.9837 18.6195 19.9837 18.49 20C18.2182 20.0167 17.9477 20.0501 17.68 20.1H17.58C17.29 19.43 16.99 18.78 16.66 18.1C18.4506 17.4851 20.1704 16.6805 21.79 15.7C22.5934 16.9894 23.0131 18.4809 23 20C23 20.17 23 20.34 23 20.51C21.8667 20.1602 20.686 19.9882 19.5 20Z" fill="#5671A6"/>
  </g>
  <defs>
    <clipPath id="clip0_157_115">
      <rect width="30" height="30" fill="white"/>
    </clipPath>
  </defs>
</svg>