<svg xmlns="http://www.w3.org/2000/svg" width="30" height="30" viewBox="0 0 30 30" fill="none">
  <g clip-path="url(#clip0_157_125)">
    <path d="M13.5215 27.5059C13.5215 27.3592 13.4892 27.2144 13.4269 27.0816C13.3647 26.9488 13.274 26.8313 13.1613 26.7375C13.0486 26.6436 12.9166 26.5757 12.7748 26.5386C12.6329 26.5014 12.4846 26.4959 12.3403 26.5225C11.0313 26.7627 9.37843 26.7988 8.93897 25.5645C8.55578 24.6085 7.92105 23.774 7.10206 23.1495C7.04363 23.1177 6.98794 23.0811 6.93556 23.0401C6.86389 22.851 6.73658 22.6881 6.57043 22.5729C6.40428 22.4576 6.2071 22.3955 6.00489 22.3946H6.00001C5.73561 22.3945 5.48194 22.4991 5.29453 22.6856C5.10711 22.8721 5.00121 23.1253 5.00001 23.3897C4.9961 24.2051 5.81101 24.7276 6.14161 24.9043C6.53146 25.296 6.84477 25.7571 7.06544 26.2637C7.4297 27.2872 8.48829 28.8399 11.5313 28.6397C11.5323 28.6749 11.5332 28.7081 11.5337 28.7383L11.5381 29.0059C11.5381 29.2711 11.6435 29.5255 11.831 29.713C12.0185 29.9006 12.2729 30.0059 12.5381 30.0059C12.8033 30.0059 13.0577 29.9006 13.2452 29.713C13.4327 29.5255 13.5381 29.2711 13.5381 29.0059L13.5332 28.6876C13.5283 28.4981 13.5215 28.2236 13.5215 27.5059ZM24.1885 12.3799C24.2202 12.2549 24.2515 12.1162 24.2788 11.9599C24.4406 10.8455 24.2996 9.70814 23.8706 8.66695C23.8165 8.53121 23.7333 8.40896 23.627 8.30875C23.5206 8.20855 23.3936 8.13282 23.2549 8.08688C22.8989 7.96676 21.5845 7.73043 19.0708 9.33688C16.9814 8.84517 14.8063 8.84517 12.7168 9.33688C10.2134 7.75396 8.90577 7.96876 8.55323 8.08204C8.4111 8.12612 8.28063 8.20144 8.17138 8.3025C8.06214 8.40355 7.97689 8.52776 7.92188 8.66604C7.48419 9.72722 7.34472 10.8878 7.51856 12.0225C7.54298 12.1504 7.56934 12.2686 7.59669 12.377C6.76826 13.4804 6.327 14.8263 6.34132 16.2061C6.33862 16.5139 6.35281 16.8217 6.3838 17.1279C6.7178 21.7305 9.7178 23.1123 11.8081 23.5869C11.7647 23.7119 11.7251 23.8457 11.69 23.9873C11.6273 24.2446 11.6692 24.5163 11.8066 24.7427C11.9439 24.9691 12.1654 25.1318 12.4225 25.1952C12.6797 25.2585 12.9514 25.2173 13.1782 25.0806C13.405 24.9439 13.5683 24.7228 13.6323 24.4658C13.696 24.1326 13.8591 23.8266 14.1001 23.5879C14.2459 23.4603 14.3514 23.2931 14.4039 23.1066C14.4563 22.9201 14.4535 22.7224 14.3956 22.5375C14.3378 22.3526 14.2275 22.1885 14.0781 22.0652C13.9287 21.9419 13.7467 21.8646 13.5542 21.8428C10.1001 21.4483 8.60059 20.041 8.37501 16.9444C8.35003 16.6991 8.33878 16.4526 8.34132 16.2061C8.32528 15.2227 8.65015 14.2642 9.26075 13.4932C9.32211 13.4128 9.38746 13.3356 9.45655 13.2617C9.57899 13.1247 9.6613 12.9567 9.69447 12.7759C9.72763 12.5952 9.71036 12.4089 9.64455 12.2373C9.57709 12.0569 9.52514 11.871 9.48928 11.6817C9.40782 11.1434 9.43454 10.5942 9.56788 10.0664C10.437 10.3119 11.255 10.7115 11.9829 11.2461C12.1033 11.3263 12.2395 11.3796 12.3823 11.4025C12.5251 11.4255 12.6711 11.4174 12.8105 11.3789C14.8316 10.8304 16.9624 10.8308 18.9834 11.3799C19.1235 11.4184 19.2704 11.426 19.4138 11.4022C19.5571 11.3784 19.6937 11.3238 19.8139 11.2422C20.5384 10.7054 21.353 10.3022 22.2192 10.0518C22.352 10.567 22.3817 11.1033 22.3066 11.6299C22.2704 11.8375 22.2138 12.0409 22.1377 12.2373C22.0719 12.4089 22.0546 12.5952 22.0878 12.776C22.1209 12.9567 22.2032 13.1248 22.3257 13.2618C22.4028 13.3487 22.48 13.4424 22.5493 13.5303C23.1556 14.2882 23.475 15.2358 23.4512 16.2061C23.453 16.4657 23.4404 16.7252 23.4136 16.9834C23.1934 20.0391 21.688 21.4473 18.2178 21.8428C18.0252 21.8647 17.8432 21.9421 17.6938 22.0656C17.5445 22.189 17.4342 22.3532 17.3764 22.5382C17.3186 22.7232 17.3159 22.921 17.3684 23.1075C17.4209 23.294 17.5265 23.4613 17.6724 23.5889C17.921 23.8339 18.0845 24.1522 18.1387 24.4971C18.2063 24.7648 18.2373 25.0404 18.231 25.3164V27.6504C18.2212 28.2979 18.2212 28.7832 18.2212 29.0059C18.2212 29.2711 18.3265 29.5254 18.5141 29.713C18.7016 29.9005 18.956 30.0059 19.2212 30.0059C19.4864 30.0059 19.7408 29.9005 19.9283 29.713C20.1158 29.5254 20.2212 29.2711 20.2212 29.0059C20.2212 28.7891 20.2212 28.3135 20.231 27.666V25.3164C20.239 24.8742 20.1869 24.433 20.0762 24.0049C20.0445 23.8643 20.0057 23.7255 19.96 23.5889C21.4812 23.3362 22.8634 22.5518 23.8606 21.3755C24.8577 20.1992 25.4051 18.7072 25.4053 17.1651C25.4382 16.8465 25.4535 16.5263 25.4512 16.2061C25.4734 14.8248 25.0284 13.4766 24.1885 12.3799L24.1885 12.3799Z" fill="#5671A6"/>
  </g>
  <defs>
    <clipPath id="clip0_157_125">
      <rect width="30" height="30" fill="white"/>
    </clipPath>
  </defs>
</svg>