<svg xmlns="http://www.w3.org/2000/svg" width="30" height="30" viewBox="0 0 30 30" fill="none">
  <path d="M20.34 13.46C20.1027 13.46 19.8707 13.5304 19.6733 13.6622C19.476 13.7941 19.3222 13.9815 19.2313 14.2008C19.1405 14.4201 19.1168 14.6613 19.1631 14.8941C19.2094 15.1269 19.3236 15.3407 19.4915 15.5085C19.6593 15.6764 19.8731 15.7906 20.1059 15.8369C20.3387 15.8832 20.5799 15.8595 20.7992 15.7687C21.0185 15.6778 21.2059 15.524 21.3378 15.3267C21.4696 15.1293 21.54 14.8973 21.54 14.66C21.54 14.3417 21.4136 14.0365 21.1885 13.8115C20.9635 13.5864 20.6583 13.46 20.34 13.46ZM24.94 15.88C24.9206 15.0503 24.7652 14.2294 24.48 13.45C24.2257 12.7831 23.83 12.1793 23.32 11.68C22.8248 11.1674 22.2196 10.7742 21.55 10.53C20.7727 10.2362 19.9508 10.0772 19.12 10.06C18.06 10 17.72 10 15 10C12.28 10 11.94 10 10.88 10.06C10.0492 10.0772 9.22734 10.2362 8.45 10.53C7.78168 10.7766 7.17693 11.1696 6.68 11.68C6.16743 12.1752 5.77418 12.7804 5.53 13.45C5.23616 14.2273 5.07721 15.0492 5.06 15.88C5 16.94 5 17.28 5 20C5 22.72 5 23.06 5.06 24.12C5.07721 24.9508 5.23616 25.7727 5.53 26.55C5.77418 27.2196 6.16743 27.8248 6.68 28.32C7.17693 28.8304 7.78168 29.2234 8.45 29.47C9.22734 29.7638 10.0492 29.9228 10.88 29.94C11.94 30 12.28 30 15 30C17.72 30 18.06 30 19.12 29.94C19.9508 29.9228 20.7727 29.7638 21.55 29.47C22.2196 29.2258 22.8248 28.8326 23.32 28.32C23.8322 27.8226 24.2283 27.2182 24.48 26.55C24.7652 25.7706 24.9206 24.9497 24.94 24.12C24.94 23.06 25 22.72 25 20C25 17.28 25 16.94 24.94 15.88ZM23.14 24C23.1327 24.6348 23.0178 25.2637 22.8 25.86C22.6403 26.2952 22.3839 26.6884 22.05 27.01C21.7256 27.3405 21.3332 27.5964 20.9 27.76C20.3037 27.9778 19.6748 28.0927 19.04 28.1C18.04 28.15 17.67 28.16 15.04 28.16C12.41 28.16 12.04 28.16 11.04 28.1C10.3809 28.1123 9.72459 28.0109 9.1 27.8C8.68578 27.6281 8.31136 27.3728 8 27.05C7.66809 26.7287 7.41484 26.3352 7.26 25.9C7.01586 25.2952 6.88044 24.6519 6.86 24C6.86 23 6.8 22.63 6.8 20C6.8 17.37 6.8 17 6.86 16C6.86448 15.3511 6.98295 14.7079 7.21 14.1C7.38605 13.6779 7.65627 13.3017 8 13C8.30381 12.6562 8.67929 12.3831 9.1 12.2C9.70955 11.98 10.352 11.8651 11 11.86C12 11.86 12.37 11.8 15 11.8C17.63 11.8 18 11.8 19 11.86C19.6348 11.8673 20.2637 11.9822 20.86 12.2C21.3144 12.3687 21.7223 12.6428 22.05 13C22.3777 13.3072 22.6338 13.6827 22.8 14.1C23.0223 14.7089 23.1373 15.3518 23.14 16C23.19 17 23.2 17.37 23.2 20C23.2 22.63 23.19 23 23.14 24ZM15 14.87C13.9858 14.872 12.995 15.1745 12.1527 15.7394C11.3103 16.3043 10.6544 17.1062 10.2676 18.0438C9.88089 18.9813 9.78072 20.0125 9.97979 21.0069C10.1789 22.0014 10.6682 22.9145 11.3861 23.631C12.1039 24.3474 13.018 24.835 14.0129 25.0321C15.0077 25.2293 16.0387 25.1271 16.9755 24.7385C17.9123 24.35 18.7129 23.6924 19.2761 22.849C19.8394 22.0056 20.14 21.0142 20.14 20C20.1413 19.3251 20.0092 18.6566 19.7512 18.033C19.4933 17.4093 19.1146 16.8428 18.6369 16.3661C18.1592 15.8893 17.5919 15.5117 16.9678 15.2549C16.3436 14.9982 15.6749 14.8674 15 14.87ZM15 23.33C14.3414 23.33 13.6976 23.1347 13.15 22.7688C12.6023 22.4029 12.1755 21.8828 11.9235 21.2743C11.6714 20.6659 11.6055 19.9963 11.734 19.3503C11.8625 18.7044 12.1796 18.111 12.6453 17.6453C13.111 17.1796 13.7044 16.8625 14.3503 16.734C14.9963 16.6055 15.6659 16.6714 16.2743 16.9235C16.8828 17.1755 17.4029 17.6023 17.7688 18.15C18.1347 18.6976 18.33 19.3414 18.33 20C18.33 20.4373 18.2439 20.8703 18.0765 21.2743C17.9092 21.6784 17.6639 22.0454 17.3547 22.3547C17.0454 22.6639 16.6784 22.9092 16.2743 23.0765C15.8703 23.2439 15.4373 23.33 15 23.33Z" fill="#5671A6"/>
</svg>